; Drill file
; Format: 2.4 (00.0000)
M48
INCH
T01C0.0276
T02C0.0315
T03C0.0394
T04C0.0591
T05C0.0866
%
G05
G90
T01
X002140Y-018990
X002140Y-017090
X004700Y-019150
X007200Y-019180
X007200Y-019940
X007200Y-018410
X001020Y-013310
X011110Y-007220
X012520Y-007380
X011830Y-008440
X013200Y-008440
X013170Y-004220
T02
X008170Y-020340
X009510Y-020340
X012130Y-020370
X013130Y-020370
X013210Y-012300
X013210Y-010960
X009760Y-009750
X008760Y-009750
X007760Y-009750
X006760Y-009750
X005760Y-009750
X004760Y-009750
X004760Y-006370
X005760Y-006370
X006760Y-006370
X007760Y-006370
X008760Y-006370
X009760Y-006370
X005640Y-004690
X001260Y-004690
T03
X010600Y-019410
X010600Y-017630
X010580Y-016530
X010580Y-014750
X013110Y-014750
X013110Y-016530
X013130Y-017630
X013130Y-019410
T04
X001200Y-001250
X003170Y-001250
X005140Y-001250
X007110Y-001250
X009070Y-001250
X011040Y-001250
T05
X001160Y-006660
M30
