%FSLAX34Y34*%
%MOMM*%
%LNCOPPER_TOP*%
G71*
G01*
%ADD10C, 2.200*%
%ADD11C, 2.500*%
%ADD12C, 0.350*%
%ADD13C, 1.800*%
%ADD14C, 1.600*%
%ADD15C, 2.000*%
%ADD16C, 0.400*%
%ADD17C, 0.300*%
%ADD18C, 0.600*%
%ADD19C, 1.000*%
%ADD20C, 1.550*%
%ADD21C, 0.500*%
%ADD22C, 0.270*%
%ADD23C, 0.250*%
%ADD24C, 4.000*%
%LPD*%
X333100Y-419788D02*
G54D10*
D03*
X268806Y-419788D02*
G54D10*
D03*
X333100Y-374544D02*
G54D10*
D03*
X268806Y-374544D02*
G54D10*
D03*
X180494Y-31744D02*
G54D11*
D03*
X80494Y-31744D02*
G54D11*
D03*
G54D12*
X333231Y-419794D02*
X268938Y-419794D01*
X268144Y-419000D01*
G54D12*
X333231Y-374550D02*
X268938Y-374550D01*
X130494Y-31744D02*
G54D11*
D03*
X230494Y-31744D02*
G54D11*
D03*
X280494Y-31744D02*
G54D11*
D03*
X269275Y-447756D02*
G54D10*
D03*
X333569Y-447756D02*
G54D10*
D03*
X269275Y-493000D02*
G54D10*
D03*
X333569Y-493000D02*
G54D10*
D03*
G54D12*
X269144Y-447750D02*
X333438Y-447750D01*
X334231Y-448544D01*
G54D12*
X269144Y-492994D02*
X333438Y-492994D01*
X54388Y-434031D02*
G54D13*
D03*
X54388Y-482431D02*
G54D13*
D03*
X30494Y-31744D02*
G54D11*
D03*
X247938Y-161925D02*
G54D14*
D03*
X222538Y-161925D02*
G54D14*
D03*
X197138Y-161925D02*
G54D14*
D03*
X171738Y-161925D02*
G54D14*
D03*
X146338Y-161925D02*
G54D14*
D03*
X120938Y-161925D02*
G54D14*
D03*
X247938Y-247650D02*
G54D14*
D03*
X222538Y-247650D02*
G54D14*
D03*
X197138Y-247650D02*
G54D14*
D03*
X171738Y-247650D02*
G54D14*
D03*
X146338Y-247650D02*
G54D14*
D03*
X120938Y-247650D02*
G54D14*
D03*
X335456Y-278388D02*
G54D15*
D03*
X335456Y-312519D02*
G54D15*
D03*
X308038Y-517325D02*
G54D15*
D03*
X333438Y-517325D02*
G54D15*
D03*
X241588Y-516731D02*
G54D15*
D03*
X207456Y-516731D02*
G54D15*
D03*
X32012Y-119162D02*
G54D15*
D03*
X143138Y-119162D02*
G54D15*
D03*
G54D16*
G75*
G01X336050Y-312738D02*
G03X336050Y-312738I-800J0D01*
G01*
G54D16*
G75*
G01X325738Y-517525D02*
G03X325738Y-517525I-17500J0D01*
G01*
G54D16*
G75*
G01X259112Y-516731D02*
G03X259112Y-516731I-17500J0D01*
G01*
G54D16*
G75*
G01X71738Y-482600D02*
G03X71738Y-482600I-17500J0D01*
G01*
G54D16*
G75*
G01X71738Y-434181D02*
G03X71738Y-434181I-17500J0D01*
G01*
G54D16*
X263812Y-231775D02*
X102681Y-231775D01*
X102681Y-263525D01*
X263812Y-263525D01*
X263812Y-231775D01*
G54D16*
X265400Y-146050D02*
X104269Y-146050D01*
X104269Y-177800D01*
X265400Y-177800D01*
X265400Y-146050D01*
G54D16*
G75*
G01X160638Y-119062D02*
G03X160638Y-119062I-17500J0D01*
G01*
G54D16*
G75*
G01X49562Y-119062D02*
G03X49562Y-119062I-17500J0D01*
G01*
G54D16*
G75*
G01X271456Y-12305D02*
G03X289544Y-12305I9044J-19395D01*
G01*
G54D17*
G75*
G01X352750Y-278606D02*
G03X352750Y-278606I-17500J0D01*
G01*
G54D17*
G75*
G01X352750Y-312738D02*
G03X352750Y-312738I-17500J0D01*
G01*
G54D12*
X355888Y-11906D02*
X10606Y-11906D01*
G54D16*
G75*
G01X221462Y-12305D02*
G03X239550Y-12305I9044J-19395D01*
G01*
G54D16*
G75*
G01X171468Y-12305D02*
G03X189557Y-12305I9044J-19395D01*
G01*
G54D16*
G75*
G01X121475Y-12305D02*
G03X139563Y-12305I9044J-19395D01*
G01*
G54D16*
G75*
G01X71481Y-12305D02*
G03X89569Y-12305I9044J-19395D01*
G01*
G54D16*
G75*
G01X11898Y-42400D02*
G03X39475Y-12305I18533J10700D01*
G01*
G54D12*
X10606Y-11906D02*
X10606Y-536575D01*
X355888Y-536575D01*
X355888Y-11906D01*
G54D16*
G75*
G01X19731Y-13167D02*
G03X11898Y-21000I10700J-18533D01*
G01*
G54D12*
X15369Y-14288D02*
X12988Y-14288D01*
X12988Y-16669D01*
G54D12*
X355888Y-278606D02*
X316200Y-278606D01*
G54D12*
X335250Y-261144D02*
X335250Y-294481D01*
G54D12*
X241588Y-499269D02*
X241588Y-534988D01*
G54D12*
X224919Y-516731D02*
X258256Y-516731D01*
G54D12*
X333662Y-536575D02*
X333662Y-473869D01*
G54D12*
X328900Y-492919D02*
X353506Y-492919D01*
G54D12*
X325725Y-517525D02*
X346362Y-517525D01*
G54D12*
X318581Y-503238D02*
X318581Y-477838D01*
X348744Y-477838D01*
X348744Y-531019D01*
X321756Y-531019D01*
G54D12*
X351125Y-400050D02*
X351125Y-460375D01*
X345569Y-465931D01*
X254288Y-465931D01*
X248731Y-460375D01*
X248731Y-406400D01*
X256669Y-398462D01*
X343981Y-398462D01*
X351125Y-405606D01*
G54D12*
X351125Y-363538D02*
X351125Y-362744D01*
X344775Y-356394D01*
X256669Y-356394D01*
X248731Y-364331D01*
X248731Y-384175D01*
X256669Y-392112D01*
X343981Y-392112D01*
X351919Y-384175D01*
X351919Y-363538D01*
X350331Y-361950D01*
G54D12*
X286831Y-493712D02*
X286831Y-478631D01*
X286831Y-477044D01*
X254288Y-477044D01*
X254288Y-504212D01*
X257462Y-509588D01*
X285244Y-509588D01*
X285244Y-478631D01*
X286038Y-477838D01*
G54D12*
X275719Y-492919D02*
X255081Y-492919D01*
G54D12*
X269369Y-477044D02*
X269369Y-508000D01*
X270162Y-508794D01*
G54D16*
X230475Y-12700D02*
X230475Y-51594D01*
G54D16*
X209044Y-30956D02*
X251906Y-30956D01*
G54D18*
X263812Y-14288D02*
X247938Y-14288D01*
X248731Y-14288D01*
X252700Y-18256D01*
X259844Y-18256D01*
X259844Y-19844D01*
X256669Y-23019D01*
X254288Y-23019D01*
X253494Y-22225D01*
X253494Y-25400D01*
X255875Y-27781D01*
X255875Y-36512D01*
X254288Y-38100D01*
X256669Y-38100D01*
X259050Y-40481D01*
X254288Y-40481D01*
X251906Y-42862D01*
X259050Y-42862D01*
X262225Y-46038D01*
X249525Y-46038D01*
X247144Y-48419D01*
X264606Y-48419D01*
X266988Y-50800D01*
X244762Y-50800D01*
X242381Y-53181D01*
X271750Y-53181D01*
X272544Y-53975D01*
G54D18*
X215394Y-14288D02*
X197138Y-15081D01*
X197931Y-15081D01*
X201900Y-19050D01*
X211425Y-18256D01*
X208250Y-22225D01*
X207456Y-26194D01*
X203488Y-23812D01*
X202694Y-23019D01*
X202694Y-26194D01*
X205075Y-28575D01*
X205075Y-37306D01*
X203488Y-38894D01*
X205869Y-38894D01*
X208250Y-41275D01*
X203488Y-41275D01*
X201106Y-43656D01*
X208250Y-43656D01*
X211425Y-46831D01*
X198725Y-46831D01*
X196344Y-49212D01*
X213806Y-49212D01*
X216188Y-51594D01*
X193962Y-51594D01*
X191581Y-53975D01*
X220950Y-53975D01*
X221744Y-54769D01*
G54D18*
X163800Y-14288D02*
X147925Y-14288D01*
X148719Y-14288D01*
X152688Y-18256D01*
X159831Y-18256D01*
X159831Y-19844D01*
X157450Y-25400D01*
X154275Y-23019D01*
X153481Y-22225D01*
X153481Y-25400D01*
X155862Y-27781D01*
X155862Y-36512D01*
X154275Y-38100D01*
X156656Y-38100D01*
X159038Y-40481D01*
X154275Y-40481D01*
X151894Y-42862D01*
X159038Y-42862D01*
X162212Y-46038D01*
X149512Y-46038D01*
X147131Y-48419D01*
X164594Y-48419D01*
X166975Y-50800D01*
X144750Y-50800D01*
X142369Y-53181D01*
X171738Y-53181D01*
X172531Y-53975D01*
G54D18*
X113000Y-15081D02*
X97125Y-15081D01*
X97919Y-15081D01*
X101888Y-19050D01*
X109031Y-19050D01*
X109031Y-20638D01*
X107444Y-26988D01*
X103475Y-23812D01*
X102681Y-23019D01*
X102681Y-26194D01*
X105062Y-28575D01*
X105062Y-37306D01*
X103475Y-38894D01*
X105856Y-38894D01*
X108238Y-41275D01*
X103475Y-41275D01*
X101094Y-43656D01*
X108238Y-43656D01*
X111412Y-46831D01*
X98712Y-46831D01*
X96331Y-49212D01*
X113794Y-49212D01*
X116175Y-51594D01*
X93950Y-51594D01*
X91569Y-53975D01*
X120938Y-53975D01*
X121731Y-54769D01*
G54D18*
X62994Y-14288D02*
X47119Y-14288D01*
X47912Y-14288D01*
X51881Y-18256D01*
X61406Y-16669D01*
X59025Y-19844D01*
X57438Y-26194D01*
X53469Y-23019D01*
X52675Y-22225D01*
X52675Y-25400D01*
X55056Y-27781D01*
X55056Y-36512D01*
X53469Y-38100D01*
X55850Y-38100D01*
X58231Y-40481D01*
X53469Y-40481D01*
X51088Y-42862D01*
X58231Y-42862D01*
X61406Y-46038D01*
X48706Y-46038D01*
X46325Y-48419D01*
X63788Y-48419D01*
X66169Y-50800D01*
X43944Y-50800D01*
X41562Y-53181D01*
X70931Y-53181D01*
X71725Y-53975D01*
G54D18*
X12194Y-46831D02*
X12194Y-47625D01*
X14575Y-50006D01*
X12194Y-52388D01*
X19338Y-52388D01*
X20131Y-53181D01*
G54D18*
X12988Y-54769D02*
X290800Y-54769D01*
X296356Y-49212D01*
X296356Y-52388D01*
X293181Y-55562D01*
X302706Y-55562D01*
X303500Y-55562D01*
X305088Y-53975D01*
X305088Y-15081D01*
X304294Y-14288D01*
X297944Y-14288D01*
X302706Y-19050D01*
X302706Y-43656D01*
X299531Y-46831D01*
X299531Y-50006D01*
X300325Y-50800D01*
G54D18*
X307469Y-15875D02*
X353506Y-15875D01*
X353506Y-21431D01*
X305881Y-21431D01*
X305881Y-25400D01*
X354300Y-25400D01*
X354300Y-30956D01*
X307469Y-30956D01*
X307469Y-36512D01*
X354300Y-36512D01*
X354300Y-41275D01*
X307469Y-41275D01*
X307469Y-46038D01*
X354300Y-46038D01*
X354300Y-50800D01*
X306675Y-50800D01*
X306675Y-55562D01*
X354300Y-55562D01*
G54D18*
X353506Y-59531D02*
X12988Y-59531D01*
X12988Y-64294D01*
X354300Y-64294D01*
X354300Y-68262D01*
X12988Y-68262D01*
X12988Y-73025D01*
X353506Y-73025D01*
G54D18*
X353506Y-77788D02*
X12988Y-77788D01*
X12988Y-82550D01*
X354300Y-82550D01*
X354300Y-86519D01*
X12988Y-86519D01*
X12988Y-91281D01*
X353506Y-91281D01*
G54D18*
X353506Y-352425D02*
X353506Y-533400D01*
X320962Y-533400D01*
X320169Y-533400D01*
X319375Y-534194D01*
X315406Y-534194D01*
X314612Y-534988D01*
X347950Y-534988D01*
X350331Y-532606D01*
X350331Y-466725D01*
X351125Y-465931D01*
X347950Y-465931D01*
X344775Y-469106D01*
X254288Y-469106D01*
X247938Y-462756D01*
X247938Y-496888D01*
X248731Y-497681D01*
X249525Y-497681D01*
X251112Y-499269D01*
X251112Y-471488D01*
X251906Y-470694D01*
X251906Y-473075D01*
X346362Y-473075D01*
X349538Y-469900D01*
X349538Y-473869D01*
X317788Y-473869D01*
X316200Y-475456D01*
X316200Y-499269D01*
X315406Y-499269D01*
X312231Y-496094D01*
X312231Y-478631D01*
X313025Y-477838D01*
X290006Y-477838D01*
X290006Y-483394D01*
X308262Y-483394D01*
X309056Y-482600D01*
X309056Y-488950D01*
X289212Y-488950D01*
X289212Y-494506D01*
X287625Y-496094D01*
X309850Y-496094D01*
X301912Y-496094D01*
X297944Y-500062D01*
X288419Y-500062D01*
X288419Y-509588D01*
X288419Y-508794D01*
X293181Y-504031D01*
X293181Y-504825D01*
X288419Y-509588D01*
X288419Y-526256D01*
X296356Y-534194D01*
X287625Y-534194D01*
X287625Y-514350D01*
X286038Y-512762D01*
X262225Y-512762D01*
X261431Y-511969D01*
X261431Y-523081D01*
X258256Y-526256D01*
X258256Y-529431D01*
X254288Y-533400D01*
X249525Y-533400D01*
X283656Y-533400D01*
X284450Y-534194D01*
X284450Y-518319D01*
X264606Y-518319D01*
X264606Y-525462D01*
X261431Y-528638D01*
X280481Y-528638D01*
X280481Y-523081D01*
X269369Y-523081D01*
X269369Y-524669D01*
X268575Y-525462D01*
G54D18*
X224919Y-526256D02*
X224919Y-527050D01*
X218569Y-533400D01*
X217775Y-533400D01*
X216981Y-534194D01*
X232062Y-534194D01*
X230475Y-534194D01*
X226506Y-530225D01*
G54D18*
X245556Y-496888D02*
X232856Y-496888D01*
X229681Y-500062D01*
X229681Y-500856D01*
X224125Y-506412D01*
X224125Y-505619D01*
X214600Y-496094D01*
X231269Y-496094D01*
X228094Y-496094D01*
X224125Y-500062D01*
G54D18*
X354300Y-314325D02*
X354300Y-322262D01*
X348744Y-327819D01*
X348744Y-353219D01*
X349538Y-354012D01*
X349538Y-353219D01*
X353506Y-349250D01*
X353506Y-328612D01*
X347156Y-328612D01*
X344775Y-330994D01*
X344775Y-348456D01*
X345569Y-349250D01*
X345569Y-335756D01*
X341600Y-331788D01*
X341600Y-350044D01*
X337631Y-350044D01*
X337631Y-333375D01*
X333662Y-333375D01*
X333662Y-350044D01*
X328900Y-350044D01*
X328900Y-331788D01*
X327312Y-331788D01*
X324138Y-328612D01*
X324138Y-350044D01*
X318581Y-350044D01*
X318581Y-327819D01*
X320169Y-326231D01*
X320169Y-325438D01*
X317788Y-323056D01*
X317788Y-320675D01*
X316994Y-319881D01*
X316994Y-347662D01*
X314612Y-350044D01*
X313819Y-349250D01*
X313819Y-307181D01*
X316994Y-304006D01*
X316994Y-301625D01*
X320169Y-298450D01*
X321756Y-298450D01*
X324931Y-295275D01*
X312231Y-295275D01*
X311438Y-296069D01*
X311438Y-307181D01*
X311438Y-302419D01*
X315406Y-298450D01*
X313819Y-298450D01*
X311438Y-296069D01*
X311438Y-258762D01*
X353506Y-258762D01*
X347950Y-258762D01*
X346362Y-260350D01*
X351919Y-260350D01*
X353506Y-261938D01*
X352712Y-261938D01*
X350331Y-264319D01*
X347950Y-261938D01*
X349538Y-261938D01*
X352712Y-265112D01*
X352712Y-269081D01*
X354300Y-271462D01*
X354300Y-287338D01*
X351919Y-289719D01*
X351919Y-301625D01*
X353506Y-303212D01*
X353506Y-307975D01*
X353506Y-303212D01*
X345569Y-295275D01*
X347156Y-295275D01*
X349538Y-292894D01*
G54D18*
X324138Y-261938D02*
X314612Y-261938D01*
X314612Y-291306D01*
X315406Y-292100D01*
X320169Y-292100D01*
X316200Y-288131D01*
X316200Y-267494D01*
X320169Y-263525D01*
G54D18*
X316200Y-303212D02*
X316200Y-325438D01*
G54D18*
X351919Y-389731D02*
X349538Y-389731D01*
X345569Y-393700D01*
X345569Y-400844D01*
X349538Y-404812D01*
X349538Y-395288D01*
X255875Y-395288D01*
X247144Y-386556D01*
X247144Y-409575D01*
X247144Y-407988D01*
X253494Y-401638D01*
X253494Y-397669D01*
X251112Y-395288D01*
X251112Y-399256D01*
X347156Y-399256D01*
X347950Y-398462D01*
G54D18*
X12194Y-407194D02*
X79662Y-407194D01*
X80456Y-406400D01*
X80456Y-534194D01*
X13781Y-534194D01*
X12988Y-533400D01*
X12988Y-411956D01*
X13781Y-411162D01*
X75694Y-411162D01*
X76488Y-411956D01*
X76488Y-529431D01*
X19338Y-529431D01*
X18544Y-528638D01*
X18544Y-415925D01*
X17750Y-415131D01*
X49500Y-415131D01*
X50294Y-414338D01*
X71725Y-414338D01*
X73312Y-415925D01*
X73312Y-523875D01*
X24100Y-523875D01*
X24100Y-419100D01*
X40769Y-419100D01*
X39975Y-419100D01*
X36006Y-423069D01*
X29656Y-423069D01*
X29656Y-520700D01*
X70931Y-520700D01*
X70931Y-515938D01*
X33625Y-515938D01*
X33625Y-508794D01*
X70138Y-508794D01*
X70931Y-509588D01*
X70931Y-511175D01*
X33625Y-511175D01*
X33625Y-504031D01*
X34419Y-503238D01*
X70138Y-503238D01*
X70138Y-495300D01*
X64581Y-500856D01*
X43944Y-500856D01*
X36006Y-492919D01*
X36006Y-499269D01*
X36006Y-497681D01*
X34419Y-496094D01*
X34419Y-423069D01*
X34419Y-442912D01*
X41562Y-450056D01*
X41562Y-466725D01*
X41562Y-467519D01*
X37594Y-471488D01*
X37594Y-451644D01*
X46325Y-451644D01*
X46325Y-463550D01*
X48706Y-463550D01*
X50294Y-461962D01*
X63788Y-461962D01*
X70931Y-469106D01*
X70931Y-446881D01*
X70138Y-446088D01*
X69344Y-446088D01*
X63788Y-451644D01*
X63788Y-458788D01*
X65375Y-460375D01*
X66169Y-460375D01*
X66962Y-461169D01*
X66962Y-452438D01*
X62200Y-452438D01*
X59819Y-454819D01*
X59819Y-457994D01*
X48706Y-457994D01*
X48706Y-454025D01*
X57438Y-454025D01*
X66169Y-454025D01*
X71725Y-448469D01*
X71725Y-446881D01*
X75694Y-442912D01*
X75694Y-425450D01*
X65375Y-415131D01*
G54D18*
X13781Y-93662D02*
X13781Y-144462D01*
X102681Y-144462D01*
X103475Y-143669D01*
X166181Y-143669D01*
X166181Y-95250D01*
X17750Y-95250D01*
X16956Y-96044D01*
X16956Y-105569D01*
X17750Y-106362D01*
X17750Y-103188D01*
X20925Y-100012D01*
X20925Y-100806D01*
X21719Y-101600D01*
X21719Y-100806D01*
X22512Y-100012D01*
X162212Y-100012D01*
X162212Y-138906D01*
X16162Y-138906D01*
X16162Y-133350D01*
X16956Y-132556D01*
X17750Y-132556D01*
X20925Y-135731D01*
X22512Y-135731D01*
X25688Y-138906D01*
X39181Y-138906D01*
X44738Y-133350D01*
X129669Y-133350D01*
X133638Y-137319D01*
X154275Y-137319D01*
X159831Y-131762D01*
X159831Y-130175D01*
X162212Y-127794D01*
X162212Y-109538D01*
X155862Y-103188D01*
X155862Y-100806D01*
X154275Y-99219D01*
X132844Y-99219D01*
X125700Y-106362D01*
X125700Y-105569D01*
X124112Y-103981D01*
X124112Y-127000D01*
X126494Y-129381D01*
X48706Y-129381D01*
X51881Y-126206D01*
X51881Y-109538D01*
X45531Y-103188D01*
X53469Y-103188D01*
X53469Y-106362D01*
X53469Y-105569D01*
X55056Y-103981D01*
X120144Y-103981D01*
X120938Y-103188D01*
X120938Y-123825D01*
X55056Y-123825D01*
X55056Y-108744D01*
X55850Y-107950D01*
X115381Y-107950D01*
X116175Y-108744D01*
X116175Y-118269D01*
X116969Y-119062D01*
X59819Y-119062D01*
X59025Y-119856D01*
X59025Y-113506D01*
X115381Y-113506D01*
G54D18*
X310644Y-348456D02*
X255081Y-348456D01*
X247938Y-355600D01*
X247938Y-347662D01*
X254288Y-347662D01*
X246350Y-347662D01*
X246350Y-492919D01*
X243969Y-495300D01*
G54D18*
X354300Y-94456D02*
X354300Y-254794D01*
X350331Y-256381D01*
X350331Y-96044D01*
G54D19*
X171738Y-97631D02*
X342394Y-97631D01*
X343188Y-96838D01*
G54D19*
X260638Y-181769D02*
X100300Y-181769D01*
X100300Y-190500D01*
X99506Y-191294D01*
X260638Y-191294D01*
X260638Y-200819D01*
X99506Y-200025D01*
X98712Y-199231D01*
X98712Y-208756D01*
X267781Y-208756D01*
X267781Y-219869D01*
X101888Y-219869D01*
X101888Y-228600D01*
X266194Y-228600D01*
X266194Y-216694D01*
X263812Y-214312D01*
X100300Y-214312D01*
G54D19*
X263812Y-267494D02*
X263812Y-344488D01*
X264606Y-345281D01*
X255875Y-345281D01*
X255875Y-269081D01*
X256669Y-268288D01*
X248731Y-268288D01*
X248731Y-346075D01*
X247144Y-347662D01*
G54D19*
X15369Y-268288D02*
X15369Y-407194D01*
X24100Y-407194D01*
X24100Y-263525D01*
X32831Y-263525D01*
X32831Y-410369D01*
X34419Y-411956D01*
X42356Y-411956D01*
X42356Y-261938D01*
X43150Y-261144D01*
X51881Y-261144D01*
X51881Y-409575D01*
X53469Y-411162D01*
X61406Y-411162D01*
X61406Y-265112D01*
X60612Y-264319D01*
X70138Y-264319D01*
X70138Y-407988D01*
X78075Y-407988D01*
X78869Y-408781D01*
X78869Y-269875D01*
X77281Y-268288D01*
X236825Y-268288D01*
X236825Y-488156D01*
X228094Y-488156D01*
X228094Y-269081D01*
X228888Y-268288D01*
X219362Y-268288D01*
X219362Y-492125D01*
X209838Y-492125D01*
X209838Y-270669D01*
X210631Y-269875D01*
X201106Y-269875D01*
X201106Y-487362D01*
X200312Y-488156D01*
X200312Y-490538D01*
X199519Y-446881D01*
X192388Y-446281D01*
X192375Y-269875D01*
X191581Y-269081D01*
X183644Y-269081D01*
X182850Y-268288D01*
X182056Y-446088D01*
X173325Y-446088D01*
X173325Y-269081D01*
X164594Y-269081D01*
X164594Y-493712D01*
X155069Y-493712D01*
X155069Y-269081D01*
X144750Y-269081D01*
X144750Y-492125D01*
X147131Y-492125D01*
X147131Y-270669D01*
X146338Y-269875D01*
X137606Y-269875D01*
X137606Y-492125D01*
X130462Y-492125D01*
X130462Y-269081D01*
X129669Y-268288D01*
X121731Y-268288D01*
X121731Y-491331D01*
X120144Y-492919D01*
X113000Y-492919D01*
X113000Y-272256D01*
X111412Y-270669D01*
X105062Y-270669D01*
X104269Y-269875D01*
X104269Y-494506D01*
X105062Y-495300D01*
X96331Y-495300D01*
X96331Y-272256D01*
X97125Y-271462D01*
X88394Y-271462D01*
X87600Y-270669D01*
X87600Y-489744D01*
X86806Y-490538D01*
X182956Y-467519D02*
G54D20*
D03*
X182956Y-487162D02*
G54D20*
D03*
X182956Y-506412D02*
G54D20*
D03*
G54D21*
X170794Y-450400D02*
X196994Y-450400D01*
X197394Y-450000D01*
X197394Y-453000D01*
X197194Y-453200D01*
X167994Y-453200D01*
X167594Y-453600D01*
X167594Y-518600D01*
X167794Y-518600D01*
X169994Y-520800D01*
X190594Y-520800D01*
X190794Y-521000D01*
X190794Y-526000D01*
X198394Y-533600D01*
X216594Y-533600D01*
X216794Y-533800D01*
G54D21*
X197200Y-455600D02*
X197200Y-498400D01*
X197000Y-498600D01*
X215800Y-498600D01*
X219600Y-502400D01*
X219600Y-497000D01*
X219400Y-496800D01*
X201200Y-496800D01*
X200400Y-496000D01*
X200400Y-495200D01*
X208200Y-495200D01*
X209000Y-494400D01*
G54D21*
X242400Y-265200D02*
X242400Y-492400D01*
X240000Y-494800D01*
G54D21*
X224400Y-490600D02*
X224400Y-494800D01*
G54D21*
X243800Y-493200D02*
X207600Y-493200D01*
G54D21*
X217400Y-499800D02*
X217400Y-500200D01*
X224400Y-507200D01*
X223400Y-507200D01*
X223400Y-527800D01*
X219000Y-532200D01*
G54D21*
X167000Y-492400D02*
X167000Y-523800D01*
X167200Y-524000D01*
X185600Y-524000D01*
X186400Y-524800D01*
X186400Y-526000D01*
X194000Y-533600D01*
X84200Y-533600D01*
X84000Y-533400D01*
X84000Y-493400D01*
X83600Y-493000D01*
X163400Y-493000D01*
X165600Y-495200D01*
X165600Y-497000D01*
X165400Y-497200D01*
X94400Y-497200D01*
X92000Y-494800D01*
X87400Y-494800D01*
X87400Y-497400D01*
X86800Y-498000D01*
X164000Y-498000D01*
X164800Y-498800D01*
X164800Y-525800D01*
X165800Y-526800D01*
X183400Y-526800D01*
X186200Y-529600D01*
X88200Y-529600D01*
X88000Y-529800D01*
X88000Y-501000D01*
X87600Y-500600D01*
X161600Y-500600D01*
X161600Y-526000D01*
X91600Y-526000D01*
X91200Y-525600D01*
X91200Y-504000D01*
X91600Y-503600D01*
X158000Y-503600D01*
X158200Y-503400D01*
X158200Y-523200D01*
X158600Y-523600D01*
X94600Y-523600D01*
X93600Y-522600D01*
X93600Y-506400D01*
X94000Y-506000D01*
X154400Y-506000D01*
X154800Y-506400D01*
X154800Y-520400D01*
X154400Y-520800D01*
X97000Y-520800D01*
X96400Y-520200D01*
X96400Y-509800D01*
X151200Y-509800D01*
X151600Y-509400D01*
X151600Y-517200D01*
X99600Y-517200D01*
X99600Y-513200D01*
X99400Y-513000D01*
X148600Y-513000D01*
X148800Y-512800D01*
G54D21*
X187200Y-452000D02*
X187200Y-288800D01*
X187600Y-288400D01*
G54D21*
X325831Y-523875D02*
X325831Y-529431D01*
G54D21*
X311544Y-535781D02*
X178194Y-535781D01*
X176606Y-534194D01*
G54D21*
X32938Y-493712D02*
X32938Y-514350D01*
X16269Y-531019D01*
G54D21*
X275031Y-334169D02*
X275031Y-346075D01*
G54D21*
X21825Y-406400D02*
X21825Y-427831D01*
G54D21*
X164700Y-487362D02*
X199625Y-487362D01*
X25794Y-338138D02*
G54D20*
D03*
G54D22*
X36656Y-218788D02*
X36656Y-203676D01*
X44590Y-203676D01*
G54D22*
X36656Y-211232D02*
X44590Y-211232D01*
G54D22*
X49856Y-203676D02*
X49856Y-218788D01*
X57790Y-218788D01*
G54D22*
X72123Y-215954D02*
X70990Y-217843D01*
X68723Y-218788D01*
X66456Y-218788D01*
X64190Y-217843D01*
X63056Y-215954D01*
X63056Y-206510D01*
X64190Y-204621D01*
X66456Y-203676D01*
X68723Y-203676D01*
X70990Y-204621D01*
X72123Y-206510D01*
G54D22*
X81990Y-211232D02*
X85390Y-213121D01*
X86523Y-215010D01*
X86523Y-218788D01*
G54D22*
X77456Y-218788D02*
X77456Y-203676D01*
X83123Y-203676D01*
X85390Y-204621D01*
X86523Y-206510D01*
X86523Y-208399D01*
X85390Y-210288D01*
X83123Y-211232D01*
X77456Y-211232D01*
G54D23*
X41631Y-225559D02*
X46965Y-239781D01*
X52298Y-225559D01*
G54D23*
X57331Y-228226D02*
X58398Y-226448D01*
X60531Y-225559D01*
X62665Y-225559D01*
X64798Y-226448D01*
X65865Y-228226D01*
X65865Y-230004D01*
X64798Y-231781D01*
X62665Y-232670D01*
X64798Y-233559D01*
X65865Y-235337D01*
X65865Y-237115D01*
X64798Y-238892D01*
X62665Y-239781D01*
X60531Y-239781D01*
X58398Y-238892D01*
X57331Y-237115D01*
G54D23*
X70831Y-239781D02*
X70831Y-239781D01*
G54D23*
X75831Y-230892D02*
X81165Y-225559D01*
X81165Y-239781D01*
G54D19*
X100694Y-144462D02*
X100694Y-272256D01*
X99900Y-273050D01*
X95931Y-273050D01*
X95931Y-150019D01*
X94344Y-148431D01*
X14969Y-148431D01*
X14969Y-261144D01*
X88788Y-261144D01*
X90375Y-262731D01*
X90375Y-257175D01*
X22906Y-257175D01*
X22112Y-257969D01*
X22112Y-155575D01*
X21319Y-154781D01*
X90375Y-154781D01*
X91169Y-155575D01*
X91169Y-161925D01*
X26875Y-161925D01*
X26875Y-168275D01*
X26081Y-169069D01*
X92756Y-169069D01*
X93550Y-168275D01*
X93550Y-174625D01*
X26081Y-174625D01*
X25288Y-175419D01*
X25288Y-180181D01*
X24494Y-180975D01*
X92756Y-180975D01*
X93550Y-180181D01*
X93550Y-185738D01*
X27669Y-185738D01*
X26875Y-186531D01*
X26875Y-192881D01*
X26081Y-193675D01*
X91962Y-193675D01*
X92756Y-192881D01*
G54D19*
X26875Y-196056D02*
X26875Y-250031D01*
X26081Y-250825D01*
X93550Y-250825D01*
X94344Y-251619D01*
X119456Y-486369D02*
G54D20*
D03*
X334562Y-107156D02*
G54D20*
D03*
X317894Y-187325D02*
G54D20*
D03*
X282175Y-183356D02*
G54D20*
D03*
X300431Y-214312D02*
G54D20*
D03*
X335356Y-214312D02*
G54D20*
D03*
G54D19*
X286038Y-333375D02*
X286038Y-245269D01*
X293975Y-245269D01*
X293181Y-334962D01*
X300325Y-334962D01*
X301119Y-334169D01*
X301912Y-246856D01*
G54D19*
X270162Y-224631D02*
X269369Y-346869D01*
X305881Y-346869D01*
X309056Y-343694D01*
X309056Y-254000D01*
X329694Y-254000D01*
G54D19*
X263019Y-141288D02*
X171738Y-141288D01*
X172531Y-140494D01*
X172531Y-104775D01*
X335250Y-104775D01*
G54D19*
X302706Y-248444D02*
X302706Y-338138D01*
X278100Y-338138D01*
X278100Y-245269D01*
G54D19*
X314612Y-127794D02*
X313819Y-127000D01*
X186025Y-127000D01*
X186025Y-120650D01*
X322550Y-120650D01*
G54D19*
X327312Y-111919D02*
X180469Y-111919D01*
X179675Y-111125D01*
X179675Y-134144D01*
X265400Y-134144D01*
G54D12*
X300038Y-214312D02*
X335756Y-214312D01*
G54D12*
X318294Y-187325D02*
X285750Y-187325D01*
X281781Y-183356D01*
G54D21*
G75*
G01X311509Y-203635D02*
G03X311509Y-224990I-10678J-10677D01*
G01*
G54D21*
G75*
G01X324748Y-224990D02*
G03X324748Y-203635I10677J10678D01*
G01*
G54D21*
G75*
G01X307285Y-198002D02*
G03X307285Y-176648I10677J10677D01*
G01*
G54D21*
G75*
G01X296367Y-179448D02*
G03X289331Y-196433I-14586J-3908D01*
G01*
G54D19*
X347662Y-98425D02*
X347662Y-200025D01*
X346869Y-200025D01*
X343694Y-196850D01*
X334962Y-196850D01*
X334169Y-196056D01*
X334169Y-194469D01*
X337344Y-191294D01*
X342900Y-191294D01*
X342900Y-105569D01*
X341312Y-103981D01*
X337344Y-103981D01*
X336550Y-104775D01*
X336550Y-184944D01*
X339725Y-188119D01*
X339725Y-180975D01*
X332581Y-173831D01*
X332581Y-117475D01*
X331788Y-116681D01*
X325438Y-116681D01*
X324644Y-115888D01*
X324644Y-167481D01*
X327025Y-169862D01*
X326231Y-169862D01*
X322262Y-165894D01*
X319088Y-165894D01*
X317500Y-167481D01*
X317500Y-125412D01*
X316706Y-124619D01*
X272256Y-124619D01*
X268288Y-128588D01*
X268288Y-144462D01*
X269081Y-145256D01*
X269081Y-169069D01*
X268288Y-169862D01*
X268288Y-167481D01*
X272256Y-163512D01*
X275431Y-163512D01*
X275431Y-132556D01*
X276225Y-131762D01*
X279400Y-131762D01*
X280194Y-132556D01*
X280194Y-163512D01*
X287338Y-163512D01*
X287338Y-131762D01*
X286544Y-130969D01*
X293688Y-130969D01*
X293688Y-167481D01*
X292894Y-168275D01*
X295275Y-168275D01*
X296862Y-169862D01*
X296862Y-173038D01*
X297656Y-173831D01*
X297656Y-175419D01*
X299244Y-177006D01*
X303212Y-177006D01*
X303212Y-133350D01*
X309562Y-133350D01*
X309562Y-169069D01*
X308769Y-169862D01*
G54D19*
X261938Y-188119D02*
X261938Y-192088D01*
X267494Y-197644D01*
X269875Y-197644D01*
X273050Y-200819D01*
X280988Y-200819D01*
X282575Y-202406D01*
X286544Y-202406D01*
X288925Y-200025D01*
X287338Y-200025D01*
X282575Y-204788D01*
X282575Y-218281D01*
X274638Y-218281D01*
X273844Y-219075D01*
X273844Y-210344D01*
X267494Y-203994D01*
G54D19*
X275431Y-206375D02*
X277019Y-206375D01*
X280194Y-209550D01*
G54D19*
X274638Y-225425D02*
X283369Y-225425D01*
X284956Y-227012D01*
X284956Y-240506D01*
X277812Y-240506D01*
X277812Y-234156D01*
X276225Y-232569D01*
G54D19*
X288925Y-231775D02*
X308769Y-231775D01*
X314325Y-226219D01*
X322262Y-226219D01*
X322262Y-229394D01*
X324644Y-231775D01*
X344488Y-231775D01*
X350044Y-226219D01*
X350044Y-251619D01*
X346869Y-254794D01*
X334962Y-254794D01*
X330200Y-250031D01*
X308769Y-250031D01*
X299244Y-240506D01*
X289719Y-240506D01*
X288925Y-239712D01*
X311944Y-239712D01*
X316706Y-234950D01*
X339725Y-234950D01*
X341312Y-236538D01*
X341312Y-246856D01*
X342900Y-248444D01*
X339725Y-248444D01*
X334169Y-242888D01*
X310356Y-242888D01*
G54D16*
X288925Y-195262D02*
X304800Y-195262D01*
X307181Y-197644D01*
X288925Y-197644D01*
G54D16*
X311944Y-203994D02*
X323850Y-203994D01*
X29369Y-169069D02*
G54D24*
D03*
G54D19*
X351631Y-357981D02*
X351631Y-357188D01*
X346869Y-352425D01*
X254000Y-352425D01*
X246856Y-359569D01*
M02*
