%FSLAX34Y34*%
%MOMM*%
%LNSILK_BOTTOM*%
G71*
G01*
%ADD10C, 0.200*%
%ADD11C, 0.150*%
%ADD12C, 0.110*%
%ADD13C, 0.100*%
%ADD14C, 0.400*%
%ADD15C, 0.050*%
%LPD*%
G54D10*
X269069Y-429756D02*
X334156Y-429756D01*
X334156Y-364669D01*
X269069Y-364669D01*
X269069Y-429756D01*
G54D10*
G75*
G01X318150Y-396419D02*
G03X318150Y-396419I-16700J0D01*
G01*
G54D11*
X112219Y-432094D02*
X114600Y-434316D01*
X114600Y-450031D01*
X112219Y-452094D01*
X78981Y-452094D01*
X76600Y-450031D01*
X76600Y-434712D01*
X78981Y-432094D01*
X112219Y-432094D01*
G54D11*
X292562Y-328188D02*
X292562Y-353300D01*
X348994Y-353300D01*
X348994Y-328188D01*
X292562Y-328188D01*
G54D11*
X326681Y-328688D02*
X326681Y-352500D01*
X313981Y-340594D01*
X326681Y-328688D01*
G54D11*
X313981Y-328688D02*
X313981Y-352500D01*
G54D11*
X330204Y-176902D02*
X310204Y-176902D01*
X310204Y-138902D01*
X330204Y-138902D01*
X330204Y-176902D01*
G54D12*
X316304Y-165125D02*
X316304Y-170458D01*
X316860Y-170458D01*
X317971Y-169792D01*
X321304Y-165792D01*
X322415Y-165125D01*
X323526Y-165125D01*
X324638Y-165792D01*
X325193Y-167125D01*
X325193Y-168458D01*
X324638Y-169792D01*
X323526Y-170458D01*
G54D12*
X316304Y-157425D02*
X316304Y-162758D01*
X316860Y-162758D01*
X317971Y-162092D01*
X321304Y-158092D01*
X322415Y-157425D01*
X323526Y-157425D01*
X324638Y-158092D01*
X325193Y-159425D01*
X325193Y-160758D01*
X324638Y-162092D01*
X323526Y-162758D01*
G54D12*
X323526Y-149725D02*
X317971Y-149725D01*
X316860Y-150392D01*
X316304Y-151725D01*
X316304Y-153058D01*
X316860Y-154392D01*
X317971Y-155058D01*
X323526Y-155058D01*
X324638Y-154392D01*
X325193Y-153058D01*
X325193Y-151725D01*
X324638Y-150392D01*
X323526Y-149725D01*
G54D12*
X316304Y-147358D02*
X325193Y-147358D01*
G54D12*
X319638Y-145358D02*
X316304Y-143358D01*
G54D12*
X318526Y-147358D02*
X321304Y-143358D01*
G54D13*
X216238Y-379569D02*
X38438Y-379569D01*
X38438Y-300169D01*
X216238Y-300169D01*
X216238Y-379569D01*
G54D14*
G75*
G01X211662Y-373169D02*
G03X211662Y-373169I-1600J0D01*
G01*
G54D11*
X220275Y-82500D02*
X309175Y-82500D01*
X309175Y-115938D01*
X220275Y-115938D01*
X220275Y-102344D01*
G54D14*
G75*
G01X227319Y-87325D02*
G03X227319Y-87325I-1600J0D01*
G01*
G54D11*
G75*
G01X220244Y-102625D02*
G03X220244Y-94725I0J3950D01*
G01*
G54D11*
X220225Y-95238D02*
X220225Y-82538D01*
G54D10*
X333306Y-437788D02*
X268219Y-437788D01*
X268219Y-502875D01*
X333306Y-502875D01*
X333306Y-437788D01*
G54D10*
G75*
G01X317575Y-471125D02*
G03X317575Y-471125I-16700J0D01*
G01*
G54D11*
X130644Y-109656D02*
X130644Y-129656D01*
X92644Y-129656D01*
X92644Y-109656D01*
X130644Y-109656D01*
G54D11*
X326038Y-16644D02*
X346038Y-16644D01*
X346038Y-54644D01*
X326038Y-54644D01*
X326038Y-16644D01*
G54D12*
X334857Y-23144D02*
X331524Y-26477D01*
X340412Y-26477D01*
G54D12*
X331524Y-34177D02*
X331524Y-28844D01*
X335412Y-28844D01*
X335412Y-29510D01*
X334857Y-30844D01*
X334857Y-32177D01*
X335412Y-33510D01*
X336524Y-34177D01*
X338746Y-34177D01*
X339857Y-33510D01*
X340412Y-32177D01*
X340412Y-30844D01*
X339857Y-29510D01*
X338746Y-28844D01*
G54D12*
X333190Y-41877D02*
X338746Y-41877D01*
X339857Y-41210D01*
X340412Y-39877D01*
X340412Y-38544D01*
X339857Y-37210D01*
X338746Y-36544D01*
X333190Y-36544D01*
X332079Y-37210D01*
X331524Y-38544D01*
X331524Y-39877D01*
X332079Y-41210D01*
X333190Y-41877D01*
G54D12*
X340412Y-44244D02*
X331524Y-44244D01*
G54D12*
X337635Y-44244D02*
X331524Y-49577D01*
G54D12*
X335968Y-46244D02*
X340412Y-49577D01*
G54D11*
X217481Y-128600D02*
X215259Y-130981D01*
X199544Y-130981D01*
X197481Y-128600D01*
X197481Y-95362D01*
X199544Y-92981D01*
X214862Y-92981D01*
X217481Y-95362D01*
X217481Y-128600D01*
G54D12*
X210335Y-114360D02*
X204779Y-114360D01*
X203668Y-115027D01*
X203112Y-116360D01*
X203112Y-117694D01*
X203668Y-119027D01*
X204779Y-119694D01*
X210335Y-119694D01*
X211446Y-119027D01*
X212001Y-117694D01*
X212001Y-116360D01*
X211446Y-115027D01*
X210335Y-114360D01*
G54D12*
X203112Y-111994D02*
X203112Y-111994D01*
G54D12*
X208668Y-109594D02*
X212001Y-106260D01*
X203112Y-106260D01*
G54D12*
X112273Y-124025D02*
X117606Y-124025D01*
X117606Y-123469D01*
X116940Y-122358D01*
X112940Y-119025D01*
X112273Y-117914D01*
X112273Y-116803D01*
X112940Y-115692D01*
X114273Y-115136D01*
X115606Y-115136D01*
X116940Y-115692D01*
X117606Y-116803D01*
G54D12*
X109906Y-124025D02*
X109906Y-115136D01*
G54D12*
X107906Y-120692D02*
X105906Y-124025D01*
G54D12*
X109906Y-121803D02*
X105906Y-119025D01*
G54D11*
X347250Y-75750D02*
X347250Y-95750D01*
X309250Y-95750D01*
X309250Y-75750D01*
X347250Y-75750D01*
G54D12*
X335956Y-84094D02*
X332623Y-80761D01*
X332623Y-89650D01*
G54D12*
X324923Y-82428D02*
X324923Y-87983D01*
X325590Y-89094D01*
X326923Y-89650D01*
X328256Y-89650D01*
X329590Y-89094D01*
X330256Y-87983D01*
X330256Y-82428D01*
X329590Y-81317D01*
X328256Y-80761D01*
X326923Y-80761D01*
X325590Y-81317D01*
X324923Y-82428D01*
G54D12*
X322556Y-89650D02*
X322556Y-80761D01*
G54D12*
X320556Y-86317D02*
X318556Y-89650D01*
G54D12*
X322556Y-87428D02*
X318556Y-84650D01*
G54D11*
X77781Y-87325D02*
X75559Y-89706D01*
X59844Y-89706D01*
X57781Y-87325D01*
X57781Y-54088D01*
X59844Y-51706D01*
X75162Y-51706D01*
X77781Y-54088D01*
X77781Y-87325D01*
G54D12*
X69862Y-80094D02*
X73195Y-76760D01*
X64306Y-76760D01*
G54D12*
X64306Y-74394D02*
X69306Y-74394D01*
G54D12*
X68195Y-74394D02*
X68973Y-73727D01*
X69306Y-72394D01*
X68973Y-71060D01*
X68195Y-70394D01*
X64306Y-70394D01*
G54D12*
X73195Y-62660D02*
X73195Y-67994D01*
X69306Y-67994D01*
X69306Y-67327D01*
X69862Y-65994D01*
X69862Y-64660D01*
X69306Y-63327D01*
X68195Y-62660D01*
X65973Y-62660D01*
X64862Y-63327D01*
X64306Y-64660D01*
X64306Y-65994D01*
X64862Y-67327D01*
X65973Y-67994D01*
G54D11*
X257944Y-241325D02*
X237944Y-241325D01*
X237944Y-203325D01*
X257944Y-203325D01*
X257944Y-241325D01*
G54D12*
X248806Y-232269D02*
X252139Y-228935D01*
X243250Y-228935D01*
G54D12*
X243250Y-226569D02*
X252139Y-226569D01*
G54D12*
X246028Y-226569D02*
X252139Y-221235D01*
G54D12*
X247694Y-224569D02*
X243250Y-221235D01*
G54D12*
X250472Y-218869D02*
X251583Y-218202D01*
X252139Y-216869D01*
X252139Y-215535D01*
X251583Y-214202D01*
X250472Y-213535D01*
X249361Y-213535D01*
X248250Y-214202D01*
X247695Y-215535D01*
X247139Y-214202D01*
X246028Y-213535D01*
X244917Y-213535D01*
X243806Y-214202D01*
X243250Y-215535D01*
X243250Y-216869D01*
X243805Y-218202D01*
X244917Y-218869D01*
G54D11*
X232544Y-241325D02*
X212544Y-241325D01*
X212544Y-203325D01*
X232544Y-203325D01*
X232544Y-241325D01*
G54D12*
X223406Y-232269D02*
X226739Y-228935D01*
X217850Y-228935D01*
G54D12*
X217850Y-226569D02*
X226739Y-226569D01*
G54D12*
X220628Y-226569D02*
X226739Y-221235D01*
G54D12*
X222294Y-224569D02*
X217850Y-221235D01*
G54D12*
X225072Y-218869D02*
X226183Y-218202D01*
X226739Y-216869D01*
X226739Y-215535D01*
X226183Y-214202D01*
X225072Y-213535D01*
X223961Y-213535D01*
X222850Y-214202D01*
X222295Y-215535D01*
X221739Y-214202D01*
X220628Y-213535D01*
X219517Y-213535D01*
X218406Y-214202D01*
X217850Y-215535D01*
X217850Y-216869D01*
X218405Y-218202D01*
X219517Y-218869D01*
G54D11*
X206350Y-241325D02*
X186350Y-241325D01*
X186350Y-203325D01*
X206350Y-203325D01*
X206350Y-241325D01*
G54D12*
X197212Y-232269D02*
X200545Y-228935D01*
X191656Y-228935D01*
G54D12*
X191656Y-226569D02*
X200545Y-226569D01*
G54D12*
X194434Y-226569D02*
X200545Y-221235D01*
G54D12*
X196101Y-224569D02*
X191656Y-221235D01*
G54D12*
X198879Y-218869D02*
X199990Y-218202D01*
X200545Y-216869D01*
X200545Y-215535D01*
X199990Y-214202D01*
X198879Y-213535D01*
X197767Y-213535D01*
X196656Y-214202D01*
X196101Y-215535D01*
X195545Y-214202D01*
X194434Y-213535D01*
X193323Y-213535D01*
X192212Y-214202D01*
X191656Y-215535D01*
X191656Y-216869D01*
X192212Y-218202D01*
X193323Y-218869D01*
G54D11*
X181744Y-241325D02*
X161744Y-241325D01*
X161744Y-203325D01*
X181744Y-203325D01*
X181744Y-241325D01*
G54D12*
X172606Y-232269D02*
X175939Y-228935D01*
X167050Y-228935D01*
G54D12*
X167050Y-226569D02*
X175939Y-226569D01*
G54D12*
X169828Y-226569D02*
X175939Y-221235D01*
G54D12*
X171494Y-224569D02*
X167050Y-221235D01*
G54D12*
X174272Y-218869D02*
X175383Y-218202D01*
X175939Y-216869D01*
X175939Y-215535D01*
X175383Y-214202D01*
X174272Y-213535D01*
X173161Y-213535D01*
X172050Y-214202D01*
X171495Y-215535D01*
X170939Y-214202D01*
X169828Y-213535D01*
X168717Y-213535D01*
X167606Y-214202D01*
X167050Y-215535D01*
X167050Y-216869D01*
X167605Y-218202D01*
X168717Y-218869D01*
G54D11*
X156344Y-241325D02*
X136344Y-241325D01*
X136344Y-203325D01*
X156344Y-203325D01*
X156344Y-241325D01*
G54D12*
X147206Y-232269D02*
X150539Y-228935D01*
X141650Y-228935D01*
G54D12*
X141650Y-226569D02*
X150539Y-226569D01*
G54D12*
X144428Y-226569D02*
X150539Y-221235D01*
G54D12*
X146094Y-224569D02*
X141650Y-221235D01*
G54D12*
X148872Y-218869D02*
X149983Y-218202D01*
X150539Y-216869D01*
X150539Y-215535D01*
X149983Y-214202D01*
X148872Y-213535D01*
X147761Y-213535D01*
X146650Y-214202D01*
X146095Y-215535D01*
X145539Y-214202D01*
X144428Y-213535D01*
X143317Y-213535D01*
X142206Y-214202D01*
X141650Y-215535D01*
X141650Y-216869D01*
X142205Y-218202D01*
X143317Y-218869D01*
G54D11*
X130144Y-236619D02*
X110144Y-236619D01*
X110144Y-198619D01*
X130144Y-198619D01*
X130144Y-236619D01*
G54D12*
X121006Y-227562D02*
X124339Y-224229D01*
X115450Y-224229D01*
G54D12*
X115450Y-221862D02*
X124339Y-221862D01*
G54D12*
X118228Y-221862D02*
X124339Y-216529D01*
G54D12*
X119894Y-219862D02*
X115450Y-216529D01*
G54D12*
X122672Y-214162D02*
X123783Y-213496D01*
X124339Y-212162D01*
X124339Y-210829D01*
X123783Y-209496D01*
X122672Y-208829D01*
X121561Y-208829D01*
X120450Y-209496D01*
X119895Y-210829D01*
X119339Y-209496D01*
X118228Y-208829D01*
X117117Y-208829D01*
X116006Y-209496D01*
X115450Y-210829D01*
X115450Y-212162D01*
X116005Y-213496D01*
X117117Y-214162D01*
G54D11*
X70462Y-153294D02*
X90462Y-153294D01*
X90462Y-191294D01*
X70462Y-191294D01*
X70462Y-153294D01*
G54D12*
X79601Y-162350D02*
X76267Y-165683D01*
X85156Y-165683D01*
G54D12*
X85156Y-168050D02*
X76267Y-168050D01*
G54D12*
X82378Y-168050D02*
X76267Y-173383D01*
G54D12*
X80712Y-170050D02*
X85156Y-173383D01*
G54D12*
X77934Y-175750D02*
X76823Y-176417D01*
X76267Y-177750D01*
X76267Y-179083D01*
X76823Y-180417D01*
X77934Y-181083D01*
X79045Y-181083D01*
X80156Y-180417D01*
X80712Y-179083D01*
X81267Y-180417D01*
X82378Y-181083D01*
X83489Y-181083D01*
X84601Y-180417D01*
X85156Y-179083D01*
X85156Y-177750D01*
X84601Y-176417D01*
X83489Y-175750D01*
G54D11*
X78856Y-432300D02*
X76475Y-430078D01*
X76475Y-414362D01*
X78856Y-412300D01*
X112094Y-412300D01*
X114475Y-414362D01*
X114475Y-429681D01*
X112094Y-432300D01*
X78856Y-432300D01*
G54D12*
X90965Y-262998D02*
X96521Y-262998D01*
X97632Y-263665D01*
X98188Y-264998D01*
X98188Y-266331D01*
X97632Y-267665D01*
X96521Y-268331D01*
X90965Y-268331D01*
X89854Y-267665D01*
X89299Y-266331D01*
X89299Y-264998D01*
X89854Y-263665D01*
X90965Y-262998D01*
G54D12*
X98188Y-260631D02*
X98188Y-260631D01*
G54D12*
X92632Y-258231D02*
X89299Y-254898D01*
X98188Y-254898D01*
G54D11*
X104088Y-275975D02*
X101866Y-278356D01*
X86150Y-278356D01*
X84088Y-275975D01*
X84088Y-242738D01*
X86150Y-240356D01*
X101469Y-240356D01*
X104088Y-242738D01*
X104088Y-275975D01*
G54D11*
X326225Y-52400D02*
X324003Y-54781D01*
X308288Y-54781D01*
X306225Y-52400D01*
X306225Y-19162D01*
X308288Y-16781D01*
X323606Y-16781D01*
X326225Y-19162D01*
X326225Y-52400D01*
G54D12*
X319178Y-37835D02*
X313623Y-37835D01*
X312512Y-38502D01*
X311956Y-39835D01*
X311956Y-41169D01*
X312512Y-42502D01*
X313623Y-43169D01*
X319178Y-43169D01*
X320290Y-42502D01*
X320845Y-41169D01*
X320845Y-39835D01*
X320290Y-38502D01*
X319178Y-37835D01*
G54D12*
X311956Y-35469D02*
X311956Y-35469D01*
G54D12*
X317512Y-33069D02*
X320845Y-29735D01*
X311956Y-29735D01*
G54D11*
X58731Y-87325D02*
X56509Y-89706D01*
X40794Y-89706D01*
X38731Y-87325D01*
X38731Y-54088D01*
X40794Y-51706D01*
X56112Y-51706D01*
X58731Y-54088D01*
X58731Y-87325D01*
G54D12*
X50812Y-80094D02*
X54145Y-76760D01*
X45256Y-76760D01*
G54D12*
X45256Y-74394D02*
X50256Y-74394D01*
G54D12*
X49145Y-74394D02*
X49923Y-73727D01*
X50256Y-72394D01*
X49923Y-71060D01*
X49145Y-70394D01*
X45256Y-70394D01*
G54D12*
X54145Y-62660D02*
X54145Y-67994D01*
X50256Y-67994D01*
X50256Y-67327D01*
X50812Y-65994D01*
X50812Y-64660D01*
X50256Y-63327D01*
X49145Y-62660D01*
X46923Y-62660D01*
X45812Y-63327D01*
X45256Y-64660D01*
X45256Y-65994D01*
X45812Y-67327D01*
X46923Y-67994D01*
G54D11*
X39681Y-87325D02*
X37459Y-89706D01*
X21744Y-89706D01*
X19681Y-87325D01*
X19681Y-54088D01*
X21744Y-51706D01*
X37062Y-51706D01*
X39681Y-54088D01*
X39681Y-87325D01*
G54D12*
X31762Y-80094D02*
X35095Y-76760D01*
X26206Y-76760D01*
G54D12*
X26206Y-74394D02*
X31206Y-74394D01*
G54D12*
X30095Y-74394D02*
X30873Y-73727D01*
X31206Y-72394D01*
X30873Y-71060D01*
X30095Y-70394D01*
X26206Y-70394D01*
G54D12*
X35095Y-62660D02*
X35095Y-67994D01*
X31206Y-67994D01*
X31206Y-67327D01*
X31762Y-65994D01*
X31762Y-64660D01*
X31206Y-63327D01*
X30095Y-62660D01*
X27873Y-62660D01*
X26762Y-63327D01*
X26206Y-64660D01*
X26206Y-65994D01*
X26762Y-67327D01*
X27873Y-67994D01*
G54D11*
X219350Y-71712D02*
X219350Y-91712D01*
X181350Y-91712D01*
X181350Y-71712D01*
X219350Y-71712D01*
G54D12*
X200979Y-86081D02*
X206312Y-86081D01*
X206312Y-85526D01*
X205646Y-84415D01*
X201646Y-81081D01*
X200979Y-79970D01*
X200979Y-78859D01*
X201646Y-77748D01*
X202979Y-77192D01*
X204312Y-77192D01*
X205646Y-77748D01*
X206312Y-78859D01*
G54D12*
X198612Y-86081D02*
X198612Y-77192D01*
G54D12*
X196612Y-82748D02*
X194612Y-86081D01*
G54D12*
X198612Y-83859D02*
X194612Y-81081D01*
G54D11*
X219381Y-52656D02*
X219381Y-72656D01*
X181381Y-72656D01*
X181381Y-52656D01*
X219381Y-52656D01*
G54D12*
X209194Y-61469D02*
X205860Y-58136D01*
X205860Y-67025D01*
G54D12*
X198160Y-59803D02*
X198160Y-65358D01*
X198827Y-66469D01*
X200160Y-67025D01*
X201494Y-67025D01*
X202827Y-66469D01*
X203494Y-65358D01*
X203494Y-59803D01*
X202827Y-58692D01*
X201494Y-58136D01*
X200160Y-58136D01*
X198827Y-58692D01*
X198160Y-59803D01*
G54D12*
X195794Y-67025D02*
X195794Y-58136D01*
G54D12*
X193794Y-63692D02*
X191794Y-67025D01*
G54D12*
X195794Y-64803D02*
X191794Y-62025D01*
G54D11*
X180175Y-88119D02*
X177953Y-90500D01*
X162238Y-90500D01*
X160175Y-88119D01*
X160175Y-54881D01*
X162238Y-52500D01*
X177556Y-52500D01*
X180175Y-54881D01*
X180175Y-88119D01*
G54D12*
X172256Y-80888D02*
X175589Y-77554D01*
X166700Y-77554D01*
G54D12*
X166700Y-75188D02*
X171700Y-75188D01*
G54D12*
X170589Y-75188D02*
X171367Y-74521D01*
X171700Y-73188D01*
X171367Y-71854D01*
X170589Y-71188D01*
X166700Y-71188D01*
G54D12*
X175589Y-63454D02*
X175589Y-68788D01*
X171700Y-68788D01*
X171700Y-68121D01*
X172256Y-66788D01*
X172256Y-65454D01*
X171700Y-64121D01*
X170589Y-63454D01*
X168367Y-63454D01*
X167256Y-64121D01*
X166700Y-65454D01*
X166700Y-66788D01*
X167256Y-68121D01*
X168367Y-68788D01*
G54D11*
X161125Y-88119D02*
X158903Y-90500D01*
X143188Y-90500D01*
X141125Y-88119D01*
X141125Y-54881D01*
X143188Y-52500D01*
X158506Y-52500D01*
X161125Y-54881D01*
X161125Y-88119D01*
G54D12*
X153206Y-80888D02*
X156539Y-77554D01*
X147650Y-77554D01*
G54D12*
X147650Y-75188D02*
X152650Y-75188D01*
G54D12*
X151539Y-75188D02*
X152317Y-74521D01*
X152650Y-73188D01*
X152317Y-71854D01*
X151539Y-71188D01*
X147650Y-71188D01*
G54D12*
X156539Y-63454D02*
X156539Y-68788D01*
X152650Y-68788D01*
X152650Y-68121D01*
X153206Y-66788D01*
X153206Y-65454D01*
X152650Y-64121D01*
X151539Y-63454D01*
X149317Y-63454D01*
X148206Y-64121D01*
X147650Y-65454D01*
X147650Y-66788D01*
X148206Y-68121D01*
X149317Y-68788D01*
G54D11*
X142075Y-88119D02*
X139853Y-90500D01*
X124138Y-90500D01*
X122075Y-88119D01*
X122075Y-54881D01*
X124138Y-52500D01*
X139456Y-52500D01*
X142075Y-54881D01*
X142075Y-88119D01*
G54D12*
X134156Y-80888D02*
X137489Y-77554D01*
X128600Y-77554D01*
G54D12*
X128600Y-75188D02*
X133600Y-75188D01*
G54D12*
X132489Y-75188D02*
X133267Y-74521D01*
X133600Y-73188D01*
X133267Y-71854D01*
X132489Y-71188D01*
X128600Y-71188D01*
G54D12*
X137489Y-63454D02*
X137489Y-68788D01*
X133600Y-68788D01*
X133600Y-68121D01*
X134156Y-66788D01*
X134156Y-65454D01*
X133600Y-64121D01*
X132489Y-63454D01*
X130267Y-63454D01*
X129156Y-64121D01*
X128600Y-65454D01*
X128600Y-66788D01*
X129156Y-68121D01*
X130267Y-68788D01*
G54D11*
X197162Y-120169D02*
X197162Y-140169D01*
X159162Y-140169D01*
X159162Y-120169D01*
X197162Y-120169D01*
G54D12*
X186975Y-128982D02*
X183642Y-125649D01*
X183642Y-134538D01*
G54D12*
X175942Y-127315D02*
X175942Y-132871D01*
X176608Y-133982D01*
X177942Y-134538D01*
X179275Y-134538D01*
X180608Y-133982D01*
X181275Y-132871D01*
X181275Y-127315D01*
X180608Y-126204D01*
X179275Y-125649D01*
X177942Y-125649D01*
X176608Y-126204D01*
X175942Y-127315D01*
G54D12*
X173575Y-134538D02*
X173575Y-125649D01*
G54D12*
X171575Y-131204D02*
X169575Y-134538D01*
G54D12*
X173575Y-132315D02*
X169575Y-129538D01*
G54D10*
X324944Y-150006D02*
X44944Y-150006D01*
X44944Y-260006D01*
X324944Y-260006D01*
X324944Y-150006D01*
G54D15*
X274944Y-175006D02*
X274944Y-235006D01*
X244944Y-235006D01*
X244944Y-175006D01*
X274944Y-175006D01*
G54D15*
X274944Y-205006D02*
X244944Y-205006D01*
G54D15*
X224944Y-175006D02*
X224944Y-235006D01*
X194944Y-235006D01*
X194944Y-175006D01*
X224944Y-175006D01*
G54D15*
X224944Y-205006D02*
X194944Y-205006D01*
G54D15*
X174944Y-175006D02*
X174944Y-235006D01*
X144944Y-235006D01*
X144944Y-175006D01*
X174944Y-175006D01*
G54D15*
X174944Y-205006D02*
X144944Y-205006D01*
G54D15*
X124944Y-175006D02*
X124944Y-235006D01*
X94944Y-235006D01*
X94944Y-175006D01*
X124944Y-175006D01*
G54D15*
X124944Y-205006D02*
X94944Y-205006D01*
G54D12*
X226571Y-248324D02*
X224571Y-249435D01*
X223904Y-250546D01*
X223904Y-252769D01*
G54D12*
X229238Y-252769D02*
X229238Y-243880D01*
X225904Y-243880D01*
X224571Y-244435D01*
X223904Y-245546D01*
X223904Y-246658D01*
X224571Y-247769D01*
X225904Y-248324D01*
X229238Y-248324D01*
G54D12*
X221538Y-243880D02*
X221538Y-252769D01*
X216871Y-252769D01*
G54D12*
X214438Y-248880D02*
X209104Y-248880D01*
G54D12*
X206738Y-252769D02*
X206738Y-243880D01*
X202071Y-243880D01*
G54D12*
X206738Y-248324D02*
X202071Y-248324D01*
G54D12*
X194304Y-245546D02*
X194304Y-251102D01*
X194971Y-252213D01*
X196304Y-252769D01*
X197638Y-252769D01*
X198971Y-252213D01*
X199638Y-251102D01*
X199638Y-245546D01*
X198971Y-244435D01*
X197638Y-243880D01*
X196304Y-243880D01*
X194971Y-244435D01*
X194304Y-245546D01*
G54D12*
X191938Y-245546D02*
X191271Y-244435D01*
X189938Y-243880D01*
X188604Y-243880D01*
X187271Y-244435D01*
X186604Y-245546D01*
X186604Y-246658D01*
X187271Y-247769D01*
X188604Y-248324D01*
X187271Y-248880D01*
X186604Y-249991D01*
X186604Y-251102D01*
X187271Y-252213D01*
X188604Y-252769D01*
X189938Y-252769D01*
X191271Y-252213D01*
X191938Y-251102D01*
G54D12*
X178904Y-252769D02*
X184238Y-252769D01*
X184238Y-252213D01*
X183571Y-251102D01*
X179571Y-247769D01*
X178904Y-246658D01*
X178904Y-245546D01*
X179571Y-244435D01*
X180904Y-243880D01*
X182238Y-243880D01*
X183571Y-244435D01*
X184238Y-245546D01*
G54D12*
X171204Y-245546D02*
X171204Y-251102D01*
X171871Y-252213D01*
X173204Y-252769D01*
X174538Y-252769D01*
X175871Y-252213D01*
X176538Y-251102D01*
X176538Y-245546D01*
X175871Y-244435D01*
X174538Y-243880D01*
X173204Y-243880D01*
X171871Y-244435D01*
X171204Y-245546D01*
G54D13*
X344956Y-295850D02*
X344956Y-299050D01*
X325956Y-299050D01*
X325956Y-295850D01*
X344956Y-295850D01*
G54D13*
X319556Y-308550D02*
X313256Y-308550D01*
G54D13*
X316356Y-305350D02*
X316356Y-311750D01*
G54D13*
X344956Y-292650D02*
X325956Y-292650D01*
G54D13*
X326656Y-267231D02*
X326656Y-322794D01*
X327450Y-323588D01*
X211562Y-323588D01*
X210769Y-322794D01*
X210769Y-266438D01*
X326656Y-266438D01*
G54D12*
X92665Y-427912D02*
X87331Y-427912D01*
X87331Y-427357D01*
X87998Y-426246D01*
X91998Y-422912D01*
X92665Y-421801D01*
X92665Y-420690D01*
X91998Y-419579D01*
X90665Y-419024D01*
X89331Y-419024D01*
X87998Y-419579D01*
X87331Y-420690D01*
G54D12*
X95031Y-419024D02*
X100365Y-419024D01*
X99698Y-420135D01*
X98365Y-421801D01*
X97031Y-424024D01*
X96365Y-425690D01*
X96365Y-427912D01*
G54D12*
X88933Y-446962D02*
X83600Y-446962D01*
X83600Y-446407D01*
X84267Y-445296D01*
X88267Y-441962D01*
X88933Y-440851D01*
X88933Y-439740D01*
X88267Y-438629D01*
X86933Y-438074D01*
X85600Y-438074D01*
X84267Y-438629D01*
X83600Y-439740D01*
G54D12*
X91300Y-438074D02*
X96633Y-438074D01*
X95967Y-439185D01*
X94633Y-440851D01*
X93300Y-443074D01*
X92633Y-444740D01*
X92633Y-446962D01*
G54D12*
X99000Y-443074D02*
X104333Y-443074D01*
G54D12*
X101667Y-440851D02*
X101667Y-445296D01*
G54D12*
X99667Y-441407D02*
X103667Y-444740D01*
G54D12*
X99667Y-444740D02*
X103667Y-441407D01*
G54D12*
X106700Y-443074D02*
X112033Y-443074D01*
G54D12*
X109367Y-440851D02*
X109367Y-445296D01*
G54D12*
X107367Y-441407D02*
X111367Y-444740D01*
G54D12*
X107367Y-444740D02*
X111367Y-441407D01*
G54D11*
X124869Y-419506D02*
X124869Y-399506D01*
X162869Y-399506D01*
X162869Y-419506D01*
X124869Y-419506D01*
G54D12*
X153375Y-407470D02*
X150042Y-404136D01*
X150042Y-413025D01*
G54D12*
X142342Y-405803D02*
X142342Y-411358D01*
X143008Y-412470D01*
X144342Y-413025D01*
X145675Y-413025D01*
X147008Y-412470D01*
X147675Y-411358D01*
X147675Y-405803D01*
X147008Y-404692D01*
X145675Y-404136D01*
X144342Y-404136D01*
X143008Y-404692D01*
X142342Y-405803D01*
G54D12*
X139975Y-413025D02*
X139975Y-404136D01*
G54D12*
X139975Y-410247D02*
X134642Y-404136D01*
G54D12*
X137975Y-408580D02*
X134642Y-413025D01*
G54D11*
X256131Y-372281D02*
X256131Y-392281D01*
X218131Y-392281D01*
X218131Y-372281D01*
X256131Y-372281D01*
G54D11*
X246606Y-402581D02*
X246606Y-422581D01*
X208606Y-422581D01*
X208606Y-402581D01*
X246606Y-402581D01*
G54D12*
X230198Y-416481D02*
X235531Y-416481D01*
X235531Y-415926D01*
X234865Y-414815D01*
X230865Y-411481D01*
X230198Y-410370D01*
X230198Y-409259D01*
X230865Y-408148D01*
X232198Y-407592D01*
X233531Y-407592D01*
X234865Y-408148D01*
X235531Y-409259D01*
G54D12*
X222498Y-416481D02*
X227831Y-416481D01*
X227831Y-415926D01*
X227165Y-414815D01*
X223165Y-411481D01*
X222498Y-410370D01*
X222498Y-409259D01*
X223165Y-408148D01*
X224498Y-407592D01*
X225831Y-407592D01*
X227165Y-408148D01*
X227831Y-409259D01*
G54D12*
X220131Y-416481D02*
X220131Y-407592D01*
G54D12*
X218131Y-413148D02*
X216131Y-416481D01*
G54D12*
X220131Y-414259D02*
X216131Y-411481D01*
G54D12*
X241154Y-386181D02*
X246488Y-386181D01*
X246488Y-385626D01*
X245821Y-384515D01*
X241821Y-381181D01*
X241154Y-380070D01*
X241154Y-378959D01*
X241821Y-377848D01*
X243154Y-377292D01*
X244488Y-377292D01*
X245821Y-377848D01*
X246488Y-378959D01*
G54D12*
X233454Y-386181D02*
X238788Y-386181D01*
X238788Y-385626D01*
X238121Y-384515D01*
X234121Y-381181D01*
X233454Y-380070D01*
X233454Y-378959D01*
X234121Y-377848D01*
X235454Y-377292D01*
X236788Y-377292D01*
X238121Y-377848D01*
X238788Y-378959D01*
G54D12*
X231088Y-386181D02*
X231088Y-377292D01*
G54D12*
X231088Y-383404D02*
X225754Y-377292D01*
G54D12*
X229088Y-381737D02*
X225754Y-386181D01*
G54D13*
X141669Y-467275D02*
X141669Y-508550D01*
X140875Y-509344D01*
X85312Y-509344D01*
X85312Y-467275D01*
X140875Y-467275D01*
G54D13*
X175800Y-474419D02*
X141669Y-474419D01*
G54D13*
X176594Y-487912D02*
X143256Y-487912D01*
X142462Y-488706D01*
G54D13*
X176594Y-500612D02*
X142462Y-500612D01*
X141669Y-499819D01*
G54D11*
X170662Y-493438D02*
X168441Y-495819D01*
X152725Y-495819D01*
X150662Y-493438D01*
X150662Y-460200D01*
X152725Y-457819D01*
X168044Y-457819D01*
X170662Y-460200D01*
X170662Y-493438D01*
G54D12*
X163516Y-479198D02*
X157960Y-479198D01*
X156849Y-479865D01*
X156294Y-481198D01*
X156294Y-482531D01*
X156849Y-483865D01*
X157960Y-484531D01*
X163516Y-484531D01*
X164627Y-483865D01*
X165183Y-482531D01*
X165183Y-481198D01*
X164627Y-479865D01*
X163516Y-479198D01*
G54D12*
X156294Y-476831D02*
X156294Y-476831D01*
G54D12*
X161849Y-474431D02*
X165183Y-471098D01*
X156294Y-471098D01*
G54D11*
X149344Y-514000D02*
X147122Y-516381D01*
X131406Y-516381D01*
X129344Y-514000D01*
X129344Y-480762D01*
X131406Y-478381D01*
X146725Y-478381D01*
X149344Y-480762D01*
X149344Y-514000D01*
G54D12*
X142197Y-499760D02*
X136642Y-499760D01*
X135531Y-500427D01*
X134975Y-501760D01*
X134975Y-503094D01*
X135531Y-504427D01*
X136642Y-505094D01*
X142197Y-505094D01*
X143308Y-504427D01*
X143864Y-503094D01*
X143864Y-501760D01*
X143308Y-500427D01*
X142197Y-499760D01*
G54D12*
X134975Y-497394D02*
X134975Y-497394D01*
G54D12*
X140531Y-494994D02*
X143864Y-491660D01*
X134975Y-491660D01*
G54D13*
X124606Y-458738D02*
X149212Y-458738D01*
X149212Y-449212D01*
X161912Y-449212D01*
X161912Y-433338D01*
X149212Y-433338D01*
X149212Y-423812D01*
X124606Y-423812D01*
X124606Y-458738D01*
G54D13*
X145651Y-450770D02*
X139477Y-444596D01*
G54D13*
X142614Y-448034D02*
X147377Y-448034D01*
X147377Y-443271D01*
X152139Y-443271D01*
G54D13*
X141820Y-446446D02*
X141820Y-440890D01*
X133883Y-440890D01*
X133883Y-433746D01*
G54D13*
X143408Y-443271D02*
X142614Y-442477D01*
X141820Y-441684D01*
X141027Y-442477D01*
X140233Y-443271D01*
G54D13*
X141820Y-448034D02*
X139439Y-450415D01*
X134677Y-450415D01*
G54D11*
X205050Y-493400D02*
X205050Y-473400D01*
X243050Y-473400D01*
X243050Y-493400D01*
X205050Y-493400D01*
G54D12*
X233556Y-481363D02*
X230223Y-478030D01*
X230223Y-486919D01*
G54D12*
X222523Y-479696D02*
X222523Y-485252D01*
X223190Y-486363D01*
X224523Y-486919D01*
X225856Y-486919D01*
X227190Y-486363D01*
X227856Y-485252D01*
X227856Y-479696D01*
X227190Y-478586D01*
X225856Y-478030D01*
X224523Y-478030D01*
X223190Y-478586D01*
X222523Y-479696D01*
G54D12*
X220156Y-486919D02*
X220156Y-478030D01*
G54D12*
X220156Y-484141D02*
X214823Y-478030D01*
G54D12*
X218156Y-482474D02*
X214823Y-486919D01*
G54D13*
X202419Y-423912D02*
X177813Y-423912D01*
X177812Y-433438D01*
X165112Y-433438D01*
X165112Y-449312D01*
X177812Y-449312D01*
X177813Y-458838D01*
X202419Y-458838D01*
X202419Y-423912D01*
G54D13*
X181374Y-431880D02*
X187548Y-438054D01*
G54D13*
X184411Y-434616D02*
X179648Y-434616D01*
X179648Y-439379D01*
X174886Y-439379D01*
G54D13*
X185205Y-436204D02*
X185205Y-441760D01*
X193142Y-441760D01*
X193142Y-448904D01*
G54D13*
X183617Y-440173D02*
X185205Y-437791D01*
X186792Y-440173D01*
G54D13*
X185205Y-434616D02*
X187586Y-432235D01*
X192348Y-432235D01*
G54D11*
X249144Y-470269D02*
X229144Y-470269D01*
X229144Y-432269D01*
X249144Y-432269D01*
X249144Y-470269D01*
G54D12*
X234450Y-459935D02*
X234450Y-465269D01*
X235006Y-465269D01*
X236117Y-464602D01*
X239450Y-460602D01*
X240561Y-459935D01*
X241672Y-459935D01*
X242783Y-460602D01*
X243339Y-461935D01*
X243339Y-463269D01*
X242783Y-464602D01*
X241672Y-465269D01*
G54D12*
X234450Y-452235D02*
X234450Y-457569D01*
X235005Y-457569D01*
X236117Y-456902D01*
X239450Y-452902D01*
X240561Y-452235D01*
X241672Y-452235D01*
X242783Y-452902D01*
X243339Y-454235D01*
X243339Y-455569D01*
X242783Y-456902D01*
X241672Y-457569D01*
G54D12*
X241672Y-444535D02*
X236117Y-444535D01*
X235006Y-445202D01*
X234450Y-446535D01*
X234450Y-447869D01*
X235006Y-449202D01*
X236117Y-449869D01*
X241672Y-449869D01*
X242783Y-449202D01*
X243339Y-447869D01*
X243339Y-446535D01*
X242783Y-445202D01*
X241672Y-444535D01*
G54D12*
X234450Y-442169D02*
X243339Y-442169D01*
G54D12*
X237228Y-442169D02*
X243339Y-436835D01*
G54D12*
X238894Y-440169D02*
X234450Y-436835D01*
G54D11*
X202306Y-404056D02*
X202306Y-424056D01*
X164306Y-424056D01*
X164306Y-404056D01*
X202306Y-404056D01*
G54D12*
X187329Y-417956D02*
X192662Y-417956D01*
X192662Y-417401D01*
X191996Y-416290D01*
X187996Y-412956D01*
X187329Y-411845D01*
X187329Y-410734D01*
X187996Y-409623D01*
X189329Y-409067D01*
X190662Y-409067D01*
X191996Y-409623D01*
X192662Y-410734D01*
G54D12*
X179629Y-417956D02*
X184962Y-417956D01*
X184962Y-417401D01*
X184296Y-416290D01*
X180296Y-412956D01*
X179629Y-411845D01*
X179629Y-410734D01*
X180296Y-409623D01*
X181629Y-409067D01*
X182962Y-409067D01*
X184296Y-409623D01*
X184962Y-410734D01*
G54D12*
X177262Y-417956D02*
X177262Y-409067D01*
G54D12*
X177262Y-415178D02*
X171929Y-409067D01*
G54D12*
X175262Y-413512D02*
X171929Y-417956D01*
G54D13*
X224125Y-526231D02*
X220925Y-526231D01*
X220925Y-507231D01*
X224125Y-507231D01*
X224125Y-526231D01*
G54D13*
X211425Y-500831D02*
X211425Y-494531D01*
G54D13*
X214625Y-497631D02*
X208225Y-497631D01*
G54D13*
X227325Y-526231D02*
X227325Y-507231D01*
G54D13*
X252744Y-507931D02*
X197181Y-507931D01*
X196388Y-508725D01*
X196388Y-392838D01*
X197181Y-392044D01*
X253538Y-392044D01*
X253538Y-507931D01*
G54D11*
X344825Y-56762D02*
X347206Y-58984D01*
X347206Y-74700D01*
X344825Y-76762D01*
X311588Y-76762D01*
X309206Y-74700D01*
X309206Y-59381D01*
X311588Y-56762D01*
X344825Y-56762D01*
G54D12*
X338569Y-65576D02*
X335235Y-62242D01*
X335235Y-71131D01*
G54D12*
X327535Y-63909D02*
X327535Y-69465D01*
X328202Y-70576D01*
X329535Y-71131D01*
X330869Y-71131D01*
X332202Y-70576D01*
X332869Y-69465D01*
X332869Y-63909D01*
X332202Y-62798D01*
X330869Y-62242D01*
X329535Y-62242D01*
X328202Y-62798D01*
X327535Y-63909D01*
G54D12*
X319835Y-63909D02*
X319835Y-69465D01*
X320502Y-70576D01*
X321835Y-71131D01*
X323169Y-71131D01*
X324502Y-70576D01*
X325169Y-69465D01*
X325169Y-63909D01*
X324502Y-62798D01*
X323169Y-62242D01*
X321835Y-62242D01*
X320502Y-62798D01*
X319835Y-63909D01*
G54D11*
X259244Y-296094D02*
X239244Y-296094D01*
X239244Y-258094D01*
X259244Y-258094D01*
X259244Y-296094D01*
G54D12*
X250106Y-287038D02*
X253439Y-283704D01*
X244550Y-283704D01*
G54D12*
X244550Y-281338D02*
X253439Y-281338D01*
G54D12*
X247328Y-281338D02*
X253439Y-276004D01*
G54D12*
X248994Y-279338D02*
X244550Y-276004D01*
G54D12*
X251772Y-273638D02*
X252883Y-272971D01*
X253439Y-271638D01*
X253439Y-270304D01*
X252883Y-268971D01*
X251772Y-268304D01*
X250661Y-268304D01*
X249550Y-268971D01*
X248995Y-270304D01*
X248439Y-268971D01*
X247328Y-268304D01*
X246217Y-268304D01*
X245106Y-268971D01*
X244550Y-270304D01*
X244550Y-271638D01*
X245105Y-272971D01*
X246217Y-273638D01*
G54D11*
X86300Y-458838D02*
X106300Y-458838D01*
X106300Y-496838D01*
X86300Y-496838D01*
X86300Y-458838D01*
G54D12*
X98337Y-487344D02*
X101670Y-484010D01*
X92781Y-484010D01*
G54D12*
X100004Y-476310D02*
X94448Y-476310D01*
X93337Y-476977D01*
X92781Y-478310D01*
X92781Y-479644D01*
X93337Y-480977D01*
X94448Y-481644D01*
X100004Y-481644D01*
X101114Y-480977D01*
X101670Y-479644D01*
X101670Y-478310D01*
X101114Y-476977D01*
X100004Y-476310D01*
G54D12*
X92781Y-473944D02*
X101670Y-473944D01*
G54D12*
X95559Y-473944D02*
X101670Y-468610D01*
G54D12*
X97226Y-471944D02*
X92781Y-468610D01*
G54D11*
X86300Y-479475D02*
X106300Y-479475D01*
X106300Y-517475D01*
X86300Y-517475D01*
X86300Y-479475D01*
G54D12*
X98337Y-507981D02*
X101670Y-504648D01*
X92781Y-504648D01*
G54D12*
X100004Y-496948D02*
X94448Y-496948D01*
X93337Y-497615D01*
X92781Y-498948D01*
X92781Y-500281D01*
X93337Y-501615D01*
X94448Y-502281D01*
X100004Y-502281D01*
X101114Y-501615D01*
X101670Y-500281D01*
X101670Y-498948D01*
X101114Y-497615D01*
X100004Y-496948D01*
G54D12*
X92781Y-494581D02*
X101670Y-494581D01*
G54D12*
X95559Y-494581D02*
X101670Y-489248D01*
G54D12*
X97226Y-492581D02*
X92781Y-489248D01*
G54D13*
X239625Y-294662D02*
X239625Y-344912D01*
X216881Y-344912D01*
X216881Y-294662D01*
X239625Y-294662D01*
G54D13*
X284325Y-352638D02*
X234075Y-352638D01*
X234075Y-329894D01*
X284325Y-329894D01*
X284325Y-352638D01*
M02*
