%FSLAX34Y34*%
%MOMM*%
%LNSOLDERMASK_BOTTOM*%
G71*
G01*
%ADD10C, 2.300*%
%ADD11R, 1.200X1.500*%
%ADD12C, 2.600*%
%ADD13R, 1.400X2.100*%
%ADD14R, 1.500X1.200*%
%ADD15R, 0.860X1.600*%
%ADD16C, 1.900*%
%ADD17C, 1.700*%
%ADD18C, 2.100*%
%ADD19R, 1.100X1.400*%
%ADD20R, 2.000X1.500*%
%ADD21R, 1.200X1.200*%
%ADD22C, 1.650*%
%ADD23C, 4.100*%
%ADD24R, 1.900X1.400*%
%ADD25R, 1.400X1.900*%
%LPD*%
X333100Y-419788D02*
G54D10*
D03*
X268806Y-419788D02*
G54D10*
D03*
X333100Y-374544D02*
G54D10*
D03*
X268806Y-374544D02*
G54D10*
D03*
X105856Y-442119D02*
G54D11*
D03*
X85256Y-442119D02*
G54D11*
D03*
X180494Y-31744D02*
G54D12*
D03*
X80494Y-31744D02*
G54D12*
D03*
X302075Y-340644D02*
G54D13*
D03*
X339675Y-340744D02*
G54D13*
D03*
X320198Y-168146D02*
G54D14*
D03*
X320198Y-147546D02*
G54D14*
D03*
X209938Y-387469D02*
G54D15*
D03*
X197238Y-387469D02*
G54D15*
D03*
X184538Y-387469D02*
G54D15*
D03*
X171838Y-387469D02*
G54D15*
D03*
X209938Y-292169D02*
G54D15*
D03*
X197238Y-292169D02*
G54D15*
D03*
X184538Y-292169D02*
G54D15*
D03*
X171838Y-292169D02*
G54D15*
D03*
X159138Y-387469D02*
G54D15*
D03*
X146438Y-387469D02*
G54D15*
D03*
X133738Y-387469D02*
G54D15*
D03*
X159138Y-292169D02*
G54D15*
D03*
X146438Y-292169D02*
G54D15*
D03*
X133738Y-292169D02*
G54D15*
D03*
X121038Y-387469D02*
G54D15*
D03*
X121038Y-292169D02*
G54D15*
D03*
X108338Y-387469D02*
G54D15*
D03*
X95638Y-387469D02*
G54D15*
D03*
X108338Y-292169D02*
G54D15*
D03*
X95638Y-292169D02*
G54D15*
D03*
X82938Y-387469D02*
G54D15*
D03*
X70238Y-387469D02*
G54D15*
D03*
X82938Y-292169D02*
G54D15*
D03*
X70238Y-292169D02*
G54D15*
D03*
X57538Y-387469D02*
G54D15*
D03*
X44838Y-387469D02*
G54D15*
D03*
X57538Y-292169D02*
G54D15*
D03*
X44838Y-292169D02*
G54D15*
D03*
X130494Y-31744D02*
G54D12*
D03*
X230494Y-31744D02*
G54D12*
D03*
X280494Y-31744D02*
G54D12*
D03*
X226575Y-72219D02*
G54D15*
D03*
X239275Y-72219D02*
G54D15*
D03*
X251975Y-72219D02*
G54D15*
D03*
X264675Y-72219D02*
G54D15*
D03*
X226575Y-126219D02*
G54D15*
D03*
X239275Y-126219D02*
G54D15*
D03*
X251975Y-126219D02*
G54D15*
D03*
X264675Y-126219D02*
G54D15*
D03*
X277375Y-72219D02*
G54D15*
D03*
X290075Y-72219D02*
G54D15*
D03*
X302775Y-72219D02*
G54D15*
D03*
X277375Y-126219D02*
G54D15*
D03*
X290075Y-126219D02*
G54D15*
D03*
X302775Y-126219D02*
G54D15*
D03*
X269275Y-447756D02*
G54D10*
D03*
X333569Y-447756D02*
G54D10*
D03*
X269275Y-493000D02*
G54D10*
D03*
X333569Y-493000D02*
G54D10*
D03*
X54388Y-434031D02*
G54D16*
D03*
X54388Y-482431D02*
G54D16*
D03*
X30494Y-31744D02*
G54D12*
D03*
X121888Y-119662D02*
G54D11*
D03*
X101288Y-119662D02*
G54D11*
D03*
X336044Y-25400D02*
G54D14*
D03*
X336044Y-46000D02*
G54D14*
D03*
X207456Y-122238D02*
G54D14*
D03*
X207456Y-101638D02*
G54D14*
D03*
X338494Y-85756D02*
G54D11*
D03*
X317894Y-85756D02*
G54D11*
D03*
X67756Y-80962D02*
G54D14*
D03*
X67756Y-60362D02*
G54D14*
D03*
X247938Y-232569D02*
G54D14*
D03*
X247938Y-211969D02*
G54D14*
D03*
X222538Y-232569D02*
G54D14*
D03*
X222538Y-211969D02*
G54D14*
D03*
X196344Y-232569D02*
G54D14*
D03*
X196344Y-211969D02*
G54D14*
D03*
X171738Y-232569D02*
G54D14*
D03*
X171738Y-211969D02*
G54D14*
D03*
X146338Y-232569D02*
G54D14*
D03*
X146338Y-211969D02*
G54D14*
D03*
X120138Y-227862D02*
G54D14*
D03*
X120138Y-207262D02*
G54D14*
D03*
X80469Y-162050D02*
G54D14*
D03*
X80469Y-182650D02*
G54D14*
D03*
X85219Y-422275D02*
G54D11*
D03*
X105819Y-422275D02*
G54D11*
D03*
X94062Y-269612D02*
G54D14*
D03*
X94062Y-249012D02*
G54D14*
D03*
X316200Y-46038D02*
G54D14*
D03*
X316200Y-25438D02*
G54D14*
D03*
X48706Y-80962D02*
G54D14*
D03*
X48706Y-60362D02*
G54D14*
D03*
X29656Y-80962D02*
G54D14*
D03*
X29656Y-60362D02*
G54D14*
D03*
X210594Y-81719D02*
G54D11*
D03*
X189994Y-81719D02*
G54D11*
D03*
X210625Y-62662D02*
G54D11*
D03*
X190025Y-62662D02*
G54D11*
D03*
X170150Y-81756D02*
G54D14*
D03*
X170150Y-61156D02*
G54D14*
D03*
X151100Y-81756D02*
G54D14*
D03*
X151100Y-61156D02*
G54D14*
D03*
X132050Y-81756D02*
G54D14*
D03*
X132050Y-61156D02*
G54D14*
D03*
X188406Y-130175D02*
G54D11*
D03*
X167806Y-130175D02*
G54D11*
D03*
X247938Y-161925D02*
G54D17*
D03*
X222538Y-161925D02*
G54D17*
D03*
X197138Y-161925D02*
G54D17*
D03*
X171738Y-161925D02*
G54D17*
D03*
X146338Y-161925D02*
G54D17*
D03*
X120938Y-161925D02*
G54D17*
D03*
X247938Y-247650D02*
G54D17*
D03*
X222538Y-247650D02*
G54D17*
D03*
X197138Y-247650D02*
G54D17*
D03*
X171738Y-247650D02*
G54D17*
D03*
X146338Y-247650D02*
G54D17*
D03*
X120938Y-247650D02*
G54D17*
D03*
X335456Y-278388D02*
G54D18*
D03*
X335456Y-312519D02*
G54D18*
D03*
X308038Y-517325D02*
G54D18*
D03*
X333438Y-517325D02*
G54D18*
D03*
X133625Y-409500D02*
G54D11*
D03*
X154225Y-409500D02*
G54D11*
D03*
X247375Y-382288D02*
G54D11*
D03*
X226775Y-382288D02*
G54D11*
D03*
X237850Y-412588D02*
G54D19*
D03*
X217250Y-412588D02*
G54D19*
D03*
X182050Y-468831D02*
G54D20*
D03*
X182050Y-487088D02*
G54D20*
D03*
X182050Y-505344D02*
G54D20*
D03*
X160638Y-487075D02*
G54D14*
D03*
X160638Y-466475D02*
G54D14*
D03*
X139319Y-507638D02*
G54D14*
D03*
X139319Y-487038D02*
G54D14*
D03*
X132556Y-450850D02*
G54D21*
D03*
X132556Y-431850D02*
G54D21*
D03*
X154756Y-441350D02*
G54D21*
D03*
X213806Y-483394D02*
G54D11*
D03*
X234406Y-483394D02*
G54D11*
D03*
X194469Y-431800D02*
G54D21*
D03*
X194469Y-450800D02*
G54D21*
D03*
X172269Y-441300D02*
G54D21*
D03*
X239138Y-461512D02*
G54D14*
D03*
X239138Y-440912D02*
G54D14*
D03*
X193550Y-414062D02*
G54D11*
D03*
X172950Y-414062D02*
G54D11*
D03*
X241588Y-516731D02*
G54D18*
D03*
X207456Y-516731D02*
G54D18*
D03*
X32012Y-119162D02*
G54D18*
D03*
X143138Y-119162D02*
G54D18*
D03*
X338462Y-66788D02*
G54D11*
D03*
X317862Y-66788D02*
G54D11*
D03*
X182956Y-467519D02*
G54D22*
D03*
X182956Y-487162D02*
G54D22*
D03*
X182956Y-506412D02*
G54D22*
D03*
X25794Y-338138D02*
G54D22*
D03*
X119456Y-486369D02*
G54D22*
D03*
X334562Y-107156D02*
G54D22*
D03*
X317894Y-187325D02*
G54D22*
D03*
X282175Y-183356D02*
G54D22*
D03*
X300431Y-214312D02*
G54D22*
D03*
X335356Y-214312D02*
G54D22*
D03*
X29369Y-169069D02*
G54D23*
D03*
X249238Y-287338D02*
G54D14*
D03*
X249238Y-266738D02*
G54D14*
D03*
X96306Y-467594D02*
G54D14*
D03*
X96306Y-488194D02*
G54D14*
D03*
X96306Y-488231D02*
G54D14*
D03*
X96306Y-508831D02*
G54D14*
D03*
X228156Y-303488D02*
G54D24*
D03*
X228256Y-335988D02*
G54D24*
D03*
X275500Y-341169D02*
G54D25*
D03*
X243000Y-341269D02*
G54D25*
D03*
M02*
